<svg xmlns="http://www.w3.org/2000/svg" width="1200" height="520" viewBox="0 0 1200 520" role="img" aria-labelledby="title desc">
  <title id="title">Russian Regions Puzzle methodology</title>
  <desc id="desc">Region recognition flows to placement accuracy, difficulty and time, then learning feedback.</desc>
  <defs>
    <linearGradient id="bg" x1="0" x2="1" y1="0" y2="1"><stop offset="0" stop-color="#071022"/><stop offset="1" stop-color="#102449"/></linearGradient>
    <linearGradient id="card" x1="0" x2="1" y1="0" y2="1"><stop offset="0" stop-color="#13284f"/><stop offset="1" stop-color="#0b1835"/></linearGradient>
    <filter id="shadow" x="-20%" y="-20%" width="140%" height="140%"><feDropShadow dx="0" dy="14" stdDeviation="18" flood-color="#000817" flood-opacity=".45"/></filter>
    <marker id="arrow" viewBox="0 0 10 10" refX="8" refY="5" markerWidth="10" markerHeight="10" orient="auto"><path d="M0 0 L10 5 L0 10 Z" fill="#ffc75f"/></marker>
    <style>
      .title{font:700 38px Arial,sans-serif;fill:#f6f9ff}.sub{font:400 20px Arial,sans-serif;fill:#b8ccec}.h{font:700 22px Arial,sans-serif;fill:#f6f9ff}.p{font:400 17px Arial,sans-serif;fill:#cbd8ef}.foot{font:700 19px Arial,sans-serif;fill:#dbe8ff}
    </style>
  </defs>
  <rect width="1200" height="520" fill="url(#bg)"/>
  <text class="title" x="56" y="74">Methodology</text>
  <text class="sub" x="56" y="110">Region recognition -> placement accuracy -> difficulty/time -> learning feedback.</text>
  <g filter="url(#shadow)">
    <g transform="translate(50 166)">
      <rect width="260" height="190" rx="8" fill="url(#card)" stroke="#ff4232" stroke-width="2"/>
      <text class="h" x="28" y="48">Region recognition</text>
      <text class="p" x="28" y="92"><tspan x="28">Shape memory</tspan><tspan x="28" dy="30">Name and outline match</tspan><tspan x="28" dy="30">Federal subject recall</tspan></text>
    </g>
    <g transform="translate(330 166)">
      <rect width="260" height="190" rx="8" fill="url(#card)" stroke="#39d6dc" stroke-width="2"/>
      <text class="h" x="28" y="48">Placement accuracy</text>
      <text class="p" x="28" y="92"><tspan x="28">Spatial position</tspan><tspan x="28" dy="30">Boundary fit</tspan><tspan x="28" dy="30">Error count</tspan></text>
    </g>
    <g transform="translate(610 166)">
      <rect width="260" height="190" rx="8" fill="url(#card)" stroke="#ffc75f" stroke-width="2"/>
      <text class="h" x="28" y="48">Difficulty and time</text>
      <text class="p" x="28" y="92"><tspan x="28">Easy, medium, hard</tspan><tspan x="28" dy="30">Paced challenge</tspan><tspan x="28" dy="30">Completion time</tspan></text>
    </g>
    <g transform="translate(890 166)">
      <rect width="260" height="190" rx="8" fill="url(#card)" stroke="#5eeab0" stroke-width="2"/>
      <text class="h" x="28" y="48">Learning feedback</text>
      <text class="p" x="28" y="92"><tspan x="28">Leaderboard review</tspan><tspan x="28" dy="30">CSV comparison</tspan><tspan x="28" dy="30">Teacher discussion</tspan></text>
    </g>
  </g>
  <path d="M316 260 H322" stroke="#ffc75f" stroke-width="4" marker-end="url(#arrow)"/><path d="M596 260 H602" stroke="#ffc75f" stroke-width="4" marker-end="url(#arrow)"/><path d="M876 260 H882" stroke="#ffc75f" stroke-width="4" marker-end="url(#arrow)"/>
  <path d="M1020 386 C930 462 292 462 202 386" fill="none" stroke="#39d6dc" stroke-width="3" stroke-dasharray="9 10" marker-end="url(#arrow)" opacity=".9"/>
  <text class="foot" x="600" y="448" text-anchor="middle">Feedback loops back into recognition practice and spatial strategy.</text>
</svg>
